# xmcd
#
# Track frame offsets: 
#        150
#        9719
#        21413
#        32567
#        44405
#        54467
#        65591
#        76979
#        87508
#        94474
#        108378
#        119244
#        127577
#        137506
#        148634
#        160623
#        167177
#        175442
#        187756
#        199139
#        211400
#        219813
#        232474
#        242750
#        255981
#        266466
#        279926
#        290007
#        299464
#        308118
#
# Disc length: 4220 seconds
#
# Revision: 1
# Processed by: cddbd v1.5.2PL0 Copyright (c) Steve Scherf et al.
# Submitted via: ExactAudioCopy v0.95b4
#
DISCID=bf107a1e
DTITLE=Various Artist - 30 Bluegrass Hits
DYEAR=1900
DGENRE=Bluegrass
TTITLE0=How Mountian Girls Can Love - The Stanley Brothers
TTITLE1=Rollin' In My Sweet Baby's Arms - Lester Flatt and Earl Scruggs
TTITLE2=Salty Dog - Lester Flatt and Earl Scruggs
TTITLE3=I Know You're Married - Reno and Smiley
TTITLE4=I Wouldn't Change You If I Could - Reno and Smiley
TTITLE5=Freedom Bell - The Country Gentlemen
TTITLE6=The Girl In The Blue Velvet Band - Hylo Brown
TTITLE7=Blue Eyed Darling - Jimmy Martin and Bob Osborne
TTITLE8=Rank Strangers - The Stanley Brothers
TTITLE9=Talking Fiddle Blues - Scotty Stoneman
TTITLE10=Orange Blossom Special - Benny Martin
TTITLE11=Cotton Eyed Joe - Tommy Jackson
TTITLE12=Pardon Me - Jim and Jesse
TTITLE13=Blue Ridge Mountain Blues - Bill Clifton
TTITLE14=I Still Write Your Name In The Sand - Mac Wiseman
TTITLE15=Banjo Whiz - Bill Emerson
TTITLE16=Bending The Strings - Allen Shelton
TTITLE17=She's Just A Cute Thing - Jimmy Martin and Bob Osborne
TTITLE18=Beautiful Blue Eyes - Red Allen
TTITLE19=Lonesome Fiddle Blues - New Grass Revival
TTITLE20=Dreaming - Kentucky Travelers
TTITLE21=Old Rattler - Grandpa Jones
TTITLE22=Eatin' Out Of Your Hand - Bill Harrell
TTITLE23=Log Cabin In The Lane - Jim Eanes
TTITLE24=Barnyard Banjo Pickin' - Stringbean
TTITLE25=Wreck Of Number Nine - Stoneman Family
TTITLE26=Willow Garden - Charlie Monroe
TTITLE27=Truck Driver's Queen - Moore and Napier
TTITLE28=Me And The Juke Box - Buzz Busby
TTITLE29=Paul and Silas - Carl Story
EXTD=
EXTT0=
EXTT1=
EXTT2=
EXTT3=
EXTT4=
EXTT5=
EXTT6=
EXTT7=
EXTT8=
EXTT9=
EXTT10=
EXTT11=
EXTT12=
EXTT13=
EXTT14=
EXTT15=
EXTT16=
EXTT17=
EXTT18=
EXTT19=
EXTT20=
EXTT21=
EXTT22=
EXTT23=
EXTT24=
EXTT25=
EXTT26=
EXTT27=
EXTT28=
EXTT29=
PLAYORDER=
